<svg width="340" height="300" viewBox="0 0 340 300" fill="none" xmlns="http://www.w3.org/2000/svg">
<path d="M189.76 242.728C185.267 242.728 181.411 241.118 178.192 237.899C174.974 234.681 173.364 230.825 173.364 226.332C173.364 221.772 174.974 217.916 178.192 214.765C181.478 211.546 185.334 209.937 189.76 209.937C194.186 209.937 198.008 211.546 201.227 214.765C204.512 217.916 206.155 221.772 206.155 226.332C206.155 230.825 204.546 234.681 201.327 237.899C198.108 241.118 194.253 242.728 189.76 242.728ZM252.425 171.714L254.537 136.811L226.071 155.922L216.717 139.627L247.597 124.539L216.717 109.25L226.071 93.2568L254.537 112.268L252.425 77.2637H271.335L268.72 112.268L297.789 93.2568L307.244 109.25L276.264 124.539L307.244 139.627L297.789 155.922L268.72 136.811L271.335 171.714H252.425Z" fill="#FF1EDB"/>
<path d="M117.479 46H98.4714H56.5717C49.8268 46 43.8997 50.9003 42.8775 57.6385L38.5859 85.203V85.4076H18.1465C12.6286 85.4076 8.33602 89.8998 8.33602 95.2084C8.33602 100.721 12.8327 105.009 18.1465 105.213H35.5194L32.454 124.202L32.2496 125.631H11.8105C6.29256 125.631 2 130.124 2 135.432C2 140.741 6.49668 145.233 11.8105 145.233H29.1834L19.7817 204.65L16.7163 224.457L15.0809 235.073C13.8549 243.446 20.1909 251 28.7751 251H41.8554H59.8415H74.5576C81.3025 251 87.0255 246.101 88.252 239.363L97.0401 184.845H102.149H118.501C157.13 184.845 188.606 152.992 187.991 114.198C187.379 76.0153 155.494 46 117.479 46ZM55.5496 105.213L117.274 105.417C122.792 105.417 127.494 109.909 127.494 115.627C127.494 121.14 122.997 125.836 117.274 125.836H52.2792L55.5496 105.213ZM117.684 164.836H107.26H102.354H91.9315C85.1846 164.836 79.4616 169.735 78.2364 176.473L69.4479 231.195H35.9285L49.2135 145.438H117.274C133.829 145.438 147.116 131.961 147.116 115.627C147.116 99.2921 133.626 85.8161 117.274 85.8161L58.8193 85.6115L61.8856 66.0099H118.706C146.501 66.0099 168.984 88.8786 168.371 116.648C167.552 143.599 144.867 164.836 117.684 164.836Z" fill="#7E7E7E"/>
</svg>
